<svg xmlns="http://www.w3.org/2000/svg" width="758.67" height="615.326" viewBox="0 0 758.67 615.326">
  <g id="Group_118" data-name="Group 118" transform="translate(0 0)">
    <path id="Path_211" data-name="Path 211" d="M826.33,254.42c-3.941,43.423-15.169,89.211-32.778,133.39-21.775,54.633-51.526,102.754-86.037,139.159L705.6,525.3c34.344-36.231,63.959-84.139,85.643-138.546,19.6-49.167,31.254-100.332,33.724-147.942l2.447.41Q827.027,246.764,826.33,254.42Z" transform="translate(-220.665 -142.337)" fill="#f2f2f2"/>
    <path id="Path_212" data-name="Path 212" d="M842.027,506.615c-48.472,77.116-107.28,132.216-165.59,155.148l-1.18-2.163c57.907-22.774,116.37-77.592,164.621-154.355Z" transform="translate(-220.665 -142.337)" fill="#f2f2f2"/>
    <path id="Path_213" data-name="Path 213" d="M825.154,308.484c-3.941,43.423-15.169,89.211-32.778,133.39C770.6,496.506,740.85,544.627,706.34,581.033l-1.915-1.67c34.344-36.231,63.959-84.139,85.643-138.546,19.6-49.167,31.254-100.332,33.724-147.942l2.447.41Q825.85,300.827,825.154,308.484Z" transform="translate(-220.665 -142.337)" fill="#f2f2f2"/>
    <path id="Path_214" data-name="Path 214" d="M280.991,419.965h-31.8a4.5,4.5,0,0,1-3.535-1.7,4.408,4.408,0,0,1-.863-3.746,86.49,86.49,0,0,0-.555-40.536,4.509,4.509,0,0,1,1.75-4.738c16.354-11.762,29.232-11.42,38.279,1.016a4.519,4.519,0,0,1,.792,1.91,141.54,141.54,0,0,1,.4,43.925,4.491,4.491,0,0,1-4.46,3.872Z" transform="translate(-220.665 -142.337)" fill="#e6e6e6"/>
    <path id="Path_215" data-name="Path 215" d="M271.131,388.116H260.19a2.281,2.281,0,0,1,0-4.562h10.941a2.281,2.281,0,0,1,0,4.562Z" transform="translate(-220.665 -142.337)" fill="#fff"/>
    <path id="Path_216" data-name="Path 216" d="M271.131,396.116H260.19a2.281,2.281,0,0,1,0-4.562h10.941a2.281,2.281,0,0,1,0,4.562Z" transform="translate(-220.665 -142.337)" fill="#fff"/>
    <path id="Path_217" data-name="Path 217" d="M271.131,404.116H260.19a2.281,2.281,0,0,1,0-4.562h10.941a2.281,2.281,0,0,1,0,4.562Z" transform="translate(-220.665 -142.337)" fill="#fff"/>
    <path id="Path_218" data-name="Path 218" d="M858.991,561.965h-31.8a4.5,4.5,0,0,1-3.535-1.7,4.408,4.408,0,0,1-.863-3.746,86.491,86.491,0,0,0-.555-40.536,4.509,4.509,0,0,1,1.75-4.738c16.354-11.762,29.232-11.42,38.279,1.016a4.519,4.519,0,0,1,.792,1.91,141.542,141.542,0,0,1,.4,43.925A4.491,4.491,0,0,1,858.991,561.965Z" transform="translate(-220.665 -142.337)" fill="#e6e6e6"/>
    <path id="Path_219" data-name="Path 219" d="M849.131,530.116H838.19a2.281,2.281,0,0,1,0-4.562h10.94a2.281,2.281,0,1,1,0,4.562Z" transform="translate(-220.665 -142.337)" fill="#fff"/>
    <path id="Path_220" data-name="Path 220" d="M849.131,538.116H838.19a2.281,2.281,0,0,1,0-4.562h10.94a2.281,2.281,0,1,1,0,4.562Z" transform="translate(-220.665 -142.337)" fill="#fff"/>
    <path id="Path_221" data-name="Path 221" d="M849.131,546.116H838.19a2.281,2.281,0,0,1,0-4.562h10.94a2.281,2.281,0,1,1,0,4.562Z" transform="translate(-220.665 -142.337)" fill="#fff"/>
    <path id="Path_222" data-name="Path 222" d="M979.335,756.473a1.187,1.187,0,0,1-1.19,1.19H221.855a1.19,1.19,0,0,1,0-2.38h756.29a1.187,1.187,0,0,1,1.19,1.19Z" transform="translate(-220.665 -142.337)" fill="#ccc"/>
    <path id="Path_223" data-name="Path 223" d="M420.168,683.613l-1.983-27.589a89.244,89.244,0,0,0-41.9-9.4c20.432,15.793,18.8,47.358,32.945,68.96a53.681,53.681,0,0,0,40.028,23.721l17,9.783a89.952,89.952,0,0,0-20.944-72.346,86.886,86.886,0,0,0-16.368-14.4C425.234,673.022,420.168,683.613,420.168,683.613Z" transform="translate(-220.665 -142.337)" fill="#f2f2f2"/>
    <path id="Path_224" data-name="Path 224" d="M779.831,687.613l1.984-27.589a89.245,89.245,0,0,1,41.9-9.4c-20.432,15.793-18.8,47.357-32.945,68.959a53.681,53.681,0,0,1-40.028,23.722l-17,9.783a89.951,89.951,0,0,1,20.944-72.346,86.882,86.882,0,0,1,16.368-14.4C774.766,677.022,779.831,687.613,779.831,687.613Z" transform="translate(-220.665 -142.337)" fill="#f2f2f2"/>
    <circle id="Ellipse_67" data-name="Ellipse 67" cx="19" cy="19" r="19" transform="translate(351.335 195.942)" fill="#f4cc26"/>
    <path id="Path_225" data-name="Path 225" d="M600.753,349.361a1.537,1.537,0,0,0-2.121,0,62.933,62.933,0,0,0-10.782,11.013l-2.3-4.459c-.887-1.716-3.476-.2-2.59,1.514l3.371,6.522a1.518,1.518,0,0,0,2.59,0,60.749,60.749,0,0,1,11.837-12.469,1.509,1.509,0,0,0,0-2.121Z" transform="translate(-220.665 -142.337)" fill="#fff"/>
    <path id="Path_226" data-name="Path 226" d="M505.985,411.156l-28.652-45,33.178-17.768,8.708,34.33,61.355,33.155a13.266,13.266,0,1,1-7.55,18.048Z" transform="translate(-220.665 -142.337)" fill="#a0616a"/>
    <path id="Path_227" data-name="Path 227" d="M456.4,312.193c-9,13.218,22.99,61.263,22.99,61.263,1.559-3.359,16.457,34.366,18.952,32.138,7.092-6.334,18.194-23.976,24.365-24.763,3.529-.45-8.185-25.478-8.185-25.478s-5.354-14.779-12.618-33.659a33.9,33.9,0,0,0-24.626-21.535S465.4,298.975,456.4,312.193Z" transform="translate(-220.665 -142.337)" fill="#3f3d56"/>
    <path id="Path_228" data-name="Path 228" d="M236.175,600.491h13.607l6.473-52.485H236.172Z" fill="#a0616a"/>
    <path id="Path_229" data-name="Path 229" d="M453.368,738.385h3.83l14.953-6.081,8.014,6.08h0a17.078,17.078,0,0,1,17.077,17.076v.556l-43.875,0Z" transform="translate(-220.665 -142.337)" fill="#2f2e41"/>
    <path id="Path_230" data-name="Path 230" d="M299.391,600.491H313l6.474-52.485H299.389Z" fill="#a0616a"/>
    <path id="Path_231" data-name="Path 231" d="M516.585,738.385h3.83l14.953-6.081,8.014,6.08h0a17.078,17.078,0,0,1,17.078,17.076v.556l-43.875,0Z" transform="translate(-220.665 -142.337)" fill="#2f2e41"/>
    <path id="Path_232" data-name="Path 232" d="M525.946,455.889,437.439,458.1c-16.809,9.13-17.065,28.891-11.557,52.352,0,0-1.859,13.945,1.859,17.663s5.578,3.719,3.719,10.226,7.964,17.136,6.771,18.33-3.982,7.7-3.982,7.7l9.3,52.99s6.508,92.036,8.367,93.9,3.719,0,1.859,4.648-3.719,2.789-1.859,4.648a68.479,68.479,0,0,1,4.648,5.578h22.476s1.695-9.3,1.695-10.226,1.859-6.508,1.859-7.437-1.643-2.573-1.643-2.573A30.585,30.585,0,0,1,479.8,700.1c0-1.859-5.578-73.443-5.578-73.443L485.38,533.7,512.34,624.8s0,79.95,1.859,81.81,1.859.93.93,4.648-4.648,2.789-1.859,5.578,3.719-1.859,2.789,2.789l-.93,4.648,27.89.4s3.719-7.836,1.859-10.625-1.748-2.028.521-6.592,3.2-5.494,2.268-6.423-.93-5.874-.93-5.874l-4.648-88.951s-.93-93.9-.93-96.684a9.273,9.273,0,0,1,.772-4.182v-3.786l-3.561-13.414Z" transform="translate(-220.665 -142.337)" fill="#2f2e41"/>
    <circle id="Ellipse_68" data-name="Ellipse 68" cx="27.5" cy="27.5" r="27.5" transform="translate(224.614 74.516)" fill="#a0616a"/>
    <path id="Path_233" data-name="Path 233" d="M486.528,290.027c5.924,3.522,9.468,9.993,11.5,16.579a157.108,157.108,0,0,1,6.751,37.537l2.149,38.141L533.544,463.5c-23.064,19.516-109.759,4.435-109.759,4.435s-2.661-.887,0-3.548,5.252-.3,2.591-2.965-.827.3.06-2.358,0-.887-.887-1.774,6.867-8.871,6.867-8.871l-7.1-46.617-8.871-94.031c10.645-13.306,32.054-21.15,32.054-21.15l5.532-9.957,27.659,2.213Z" transform="translate(-220.665 -142.337)" fill="#3f3d56"/>
    <path id="Path_234" data-name="Path 234" d="M495.448,229.742a12.744,12.744,0,0,1,4.528,6.36,89.506,89.506,0,0,0,.059-12.479c-.324-2.92-2.38-3.577-4.761-4.338-2.15-.688-4.581-1.464-5.236-4.3-8.644-8.409-23.692-7.985-33.991-5.052-5.667,1.614-8.927,3.688-9.219,4.9l-.06.25-.23.115c-4.368,2.184-5.218,9.081-5.162,14.482.106,10.176,3.62,21.733,5.6,22.672.1.05.131.03.177-.008h0c2.98-2.382,6.616.181,8.214,1.574a28.6,28.6,0,0,1,25.61-24.26,44.883,44.883,0,0,0,6.172-1.035,12.994,12.994,0,0,1,3.153-.414,8.974,8.974,0,0,1,5.148,1.529Z" transform="translate(-220.665 -142.337)" fill="#2f2e41"/>
    <path id="Path_235" data-name="Path 235" d="M666.162,477.8l52.9-53.718L733,381.119l-22.428-9.072c-11.11,11.207-22.547,45.515-22.547,45.515l-36.106,48.458c-.288.107-.576.22-.859.354a10.687,10.687,0,1,0,15.1,11.426Z" transform="translate(-220.665 -142.337)" fill="#ffb8b8"/>
    <path id="Path_236" data-name="Path 236" d="M704.453,376.963l28.363,8.2.106-.02c10.426-2.024,18.673-19.35,23.755-33.529a19.6,19.6,0,0,0-10.615-24.558h0a19.639,19.639,0,0,0-20.5,3.125l-14.142,12.177Z" transform="translate(-220.665 -142.337)" fill="#f4cc26"/>
    <path id="Path_237" data-name="Path 237" d="M459.521,598.9H444.267l-7.256-58.835h22.512Z" fill="#ffb8b8"/>
    <path id="Path_238" data-name="Path 238" d="M684.077,736.251h-4.293l-16.762-6.817-8.984,6.816h0a19.145,19.145,0,0,0-19.144,19.143v.623l49.184,0Z" transform="translate(-220.665 -142.337)" fill="#2f2e41"/>
    <path id="Path_239" data-name="Path 239" d="M527.2,598.9H511.95l-7.256-58.835h22.513Z" fill="#ffb8b8"/>
    <path id="Path_240" data-name="Path 240" d="M751.76,736.251h-4.293L730.7,729.434l-8.984,6.816h0a19.145,19.145,0,0,0-19.144,19.143v.623l49.184,0Z" transform="translate(-220.665 -142.337)" fill="#2f2e41"/>
    <path id="Path_241" data-name="Path 241" d="M771.128,487.806s1.781,21.374-2.672,41.857S764,607.833,764,607.833l-9.8,112.411-29.389-2.672L716.8,529.663l-28.5,63.23,2.672,8.906-3.559,2.226s2.668,17.366.887,17.366-6.234,2.672-6.234,2.672l3.562,91.728-30.279-.891L644.667,585.769l11.577-73.917.891-14.249,4.008.165,2.041-5.953,3.748-10.242Z" transform="translate(-220.665 -142.337)" fill="#2f2e41"/>
    <path id="Path_242" data-name="Path 242" d="M772.667,492.3l.159-.223c8.477-11.868-4.272-40.386-6.2-44.52l8.1-2.628-1.824-15.5-.864-6.911,6.19-6.19.017-.154L781.812,385l5.179-20.7a45.452,45.452,0,0,0-12.9-44.048l-11.972-11.288-14.55-21.529H724.1l-8.045,15.2A34.2,34.2,0,0,0,689.6,337.541l1.823,39.855-7.138,49.623,0,8.98-8.033,8.927L678,453.7l-6.114,2.62-2.7,12.6c-1.117,1.474-8.491,11.306-8.491,13.994,0,.4.3.794.937,1.226,5.025,3.4,32.8,10.34,45.092,5.421,13.094-5.236,65.145,2.619,65.67,2.7Z" transform="translate(-220.665 -142.337)" fill="#f4cc26"/>
    <circle id="Ellipse_69" data-name="Ellipse 69" cx="31.074" cy="31.074" r="31.074" transform="translate(481.066 75.993)" fill="#ffb8b8"/>
    <path id="Path_243" data-name="Path 243" d="M729.829,280.982a84.513,84.513,0,0,0,14.346-1.375c4.687-1.08,15.027-9.076,17.846-13.8h0c2.094-3.51,3.351-8.938,4.036-12.874a37.779,37.779,0,0,0-7.379-29.811,11.936,11.936,0,0,0-4.926-3.989c-.174-.063-.354-.118-.534-.165a14.727,14.727,0,0,1-7.44-4.342,12.146,12.146,0,0,0-1.25-1.221,18.14,18.14,0,0,0-7.664-3.6c-4.529-1.088-11.006.275-19.253,4.054-4.143,1.9-8.742,1.369-12.286.7a1.154,1.154,0,0,0-1.076.4,8.144,8.144,0,0,1-5.477,2.349c-1.258.088-2.535,1.866-4.074,4.182-.349.526-.757,1.139-1.052,1.514l-.059-.7-.692.8a9.883,9.883,0,0,0,4.876,15.981,19.275,19.275,0,0,0,3.891.517c.795.051,1.617.1,2.407.22a14.9,14.9,0,0,1,11.318,9.38,3.9,3.9,0,0,0,5.928,1.739,6.438,6.438,0,0,1,5.837-1.219,4.274,4.274,0,0,1,1.944,2.093,5.57,5.57,0,0,0,2.176,2.41c3.235,1.564,3.644,8.85,2.654,14.959-.954,5.888-3.03,10.184-5.047,10.445-1.553.2-1.729.317-1.834.595l-.094.249.181.226a6.364,6.364,0,0,0,2.7.29Z" transform="translate(-220.665 -142.337)" fill="#2f2e41"/>
    <path id="Path_244" data-name="Path 244" d="M704.048,380.286l-14.937-19.032c-15.215,4.19-42.211,28.253-42.211,28.253l-55.442,24.059a10.681,10.681,0,1,0,6.489,17.307l72.627-20.262Z" transform="translate(-220.665 -142.337)" fill="#ffb8b8"/>
    <path id="Path_245" data-name="Path 245" d="M700.468,384.637l23.568-26.273,1.309-18.616a19.641,19.641,0,0,0-9.747-18.3h0a19.6,19.6,0,0,0-26.032,6.171c-8.328,12.551-17.286,29.52-12.677,39.087l.047.1Z" transform="translate(-220.665 -142.337)" fill="#f4cc26"/>
    <path id="Path_246" data-name="Path 246" d="M483.244,483.387,421.99,452.016c-4.357-2.231-5.8-8.15-3.217-13.194l39.939-77.984c2.583-5.044,8.229-7.332,12.586-5.1l61.254,31.371c4.357,2.231,5.8,8.15,3.217,13.194l-39.939,77.984C493.248,483.33,487.6,485.618,483.244,483.387Z" transform="translate(-220.665 -142.337)" fill="#e6e6e6"/>
    <path id="Path_247" data-name="Path 247" d="M472.778,468.965l-41.617-21.314c-4.081-2.09-5.433-7.633-3.013-12.357l33.181-64.788c2.419-4.724,7.707-6.866,11.788-4.776l50.265,25.743c4.081,2.09,5.432,7.633,3.013,12.356l-18.026,35.2C497.593,460.066,490.955,478.274,472.778,468.965Z" transform="translate(-220.665 -142.337)" fill="#fff"/>
    <path id="Path_248" data-name="Path 248" d="M493.355,433.585l-36.861-18.878a2.305,2.305,0,0,1,2.08-4.06l36.861,18.878a2.305,2.305,0,0,1-2.08,4.06Z" transform="translate(-220.665 -142.337)" fill="#f4cc26"/>
    <path id="Path_249" data-name="Path 249" d="M460.8,427.037l-8.412-4.308a2.306,2.306,0,0,1,2.08-4.061l8.412,4.308a2.306,2.306,0,0,1-2.08,4.061Z" transform="translate(-220.665 -142.337)" fill="#f4cc26"/>
    <path id="Path_250" data-name="Path 250" d="M471.587,442.69l-23.311-11.939a2.306,2.306,0,0,1,2.08-4.061l23.311,11.939a2.306,2.306,0,0,1-2.08,4.061Z" transform="translate(-220.665 -142.337)" fill="#f4cc26"/>
    <path id="Path_251" data-name="Path 251" d="M507.942,405.1,471.08,386.224a2.305,2.305,0,0,1,2.08-4.06l36.861,18.878a2.305,2.305,0,0,1-2.08,4.06Z" transform="translate(-220.665 -142.337)" fill="#f4cc26"/>
    <path id="Path_252" data-name="Path 252" d="M475.384,398.555l-8.412-4.308a2.306,2.306,0,0,1,2.08-4.061l8.412,4.308a2.306,2.306,0,0,1-2.08,4.061Z" transform="translate(-220.665 -142.337)" fill="#f4cc26"/>
    <path id="Path_253" data-name="Path 253" d="M486.174,414.208l-23.311-11.939a2.306,2.306,0,0,1,2.08-4.061l23.311,11.939a2.306,2.306,0,0,1-2.08,4.061Z" transform="translate(-220.665 -142.337)" fill="#f4cc26"/>
    <path id="Path_254" data-name="Path 254" d="M432.485,415.494l-13.838-51.517,36.979-7-1.989,35.361,48.588,50.03a13.266,13.266,0,1,1-12.615,14.953Z" transform="translate(-220.665 -142.337)" fill="#a0616a"/>
    <path id="Path_255" data-name="Path 255" d="M414.863,306.216c-12.552,9.909,3.559,65.338,3.559,65.338,2.494-2.737,5.393,37.72,8.442,36.342,8.665-3.915,24.547-17.416,30.67-16.316,3.5.629-.167-26.76-.167-26.76s-.675-15.7-1.943-35.894A33.9,33.9,0,0,0,438.39,301S427.415,296.306,414.863,306.216Z" transform="translate(-220.665 -142.337)" fill="#3f3d56"/>
    <path id="Path_256" data-name="Path 256" d="M623.719,529.841l-33.426-15.784a5.231,5.231,0,0,1-2.87-3.544,5.123,5.123,0,0,1,.952-4.365,100.579,100.579,0,0,0,19.413-42.254,5.2,5.2,0,0,1,5.092-4.19c17.048.058,29.789,6.283,37.868,18.5a5.261,5.261,0,0,1,.688,4.376,164.526,164.526,0,0,1-21.108,45.407,5.22,5.22,0,0,1-6.609,1.855Z" transform="translate(-220.665 -142.337)" fill="#e6e6e6"/>
    <path id="Path_257" data-name="Path 257" d="M633.552,507.7l-25.558-12.069a2.651,2.651,0,1,1,2.264-4.795l25.558,12.069a2.651,2.651,0,0,1-2.264,4.795Z" transform="translate(-220.665 -142.337)" fill="#fff"/>
    <path id="Path_258" data-name="Path 258" d="M637.522,499.295l-25.558-12.069a2.651,2.651,0,1,1,2.264-4.795L639.787,494.5a2.651,2.651,0,1,1-2.264,4.8Z" transform="translate(-220.665 -142.337)" fill="#fff"/>
    <path id="Path_259" data-name="Path 259" d="M603.371,235.352l-2.379.261c-10.607-41.684-31.168-70.563-59.461-83.514-35.968-16.463-80.443-5.408-125.234,31.13-45.018,36.724-84.872,94.733-112.217,163.343l-2.308-1.056c27.466-68.909,67.523-127.2,112.794-164.127,45.5-37.115,90.881-48.252,127.79-31.357C571.459,163.353,592.558,192.857,603.371,235.352Z" transform="translate(-220.665 -142.337)" fill="#f2f2f2"/>
    <path id="Path_260" data-name="Path 260" d="M340.9,289.64c-6.222,13.107-12.139,26.685-17.589,40.358-31.361,78.682-47.253,159.038-45.954,232.383l-2.451-.262C273.6,488.5,289.541,407.87,321,328.942c5.465-13.711,11.4-27.328,17.64-40.472Z" transform="translate(-220.665 -142.337)" fill="#f2f2f2"/>
    <path id="Path_261" data-name="Path 261" d="M339.721,343.7c-6.222,13.107-12.139,26.685-17.589,40.358-31.361,78.682-47.253,159.038-45.954,232.383l-2.451-.262c-1.3-73.619,14.638-154.251,46.1-233.178,5.465-13.711,11.4-27.328,17.64-40.472Z" transform="translate(-220.665 -142.337)" fill="#f2f2f2"/>
    <ellipse id="Ellipse_70" data-name="Ellipse 70" cx="8.857" cy="10.195" rx="8.857" ry="10.195" transform="translate(31.298 217.112) rotate(-56.364)" fill="#ccc"/>
    <ellipse id="Ellipse_71" data-name="Ellipse 71" cx="8.857" cy="10.195" rx="8.857" ry="10.195" transform="translate(608.242 364.184) rotate(-56.364)" fill="#ccc"/>
  </g>
</svg>
