<svg xmlns="http://www.w3.org/2000/svg" width="1920" height="600" viewBox="0 0 1920 600">
  <g id="Group_26" data-name="Group 26" transform="translate(-4236 2321)">
    <rect id="Rectangle_66" data-name="Rectangle 66" width="1920" height="600" transform="translate(4236 -2321)" fill="none"/>
    <g id="Group_25" data-name="Group 25" transform="translate(4236 -3649)">
      <path id="Rectangle_67" data-name="Rectangle 67" d="M0,0H1494a300,300,0,0,1,300,300v0a300,300,0,0,1-300,300H0a0,0,0,0,1,0,0V0A0,0,0,0,1,0,0Z" transform="translate(0 1328)" fill="rgba(244,204,38,0.65)"/>
      <path id="Rectangle_68" data-name="Rectangle 68" d="M0,0H1485.5A271.5,271.5,0,0,1,1757,271.5v0A271.5,271.5,0,0,1,1485.5,543H0a0,0,0,0,1,0,0V0A0,0,0,0,1,0,0Z" transform="translate(0 1357)" fill="rgba(244,204,38,0.65)"/>
    </g>
  </g>
</svg>
